<svg width="16" height="18" viewBox="0 0 16 18" fill="none" xmlns="http://www.w3.org/2000/svg">
<path d="M15.4768 4.10354C15.6721 4.28449 15.7903 4.47467 15.8914 4.71931C15.9103 4.76132 15.9292 4.80286 15.9491 4.84625C16.1318 5.63882 15.7949 6.41338 15.3836 7.07346C15.1676 7.40304 14.9123 7.698 14.646 7.98742C14.5333 8.11021 14.4272 8.23668 14.3219 8.36593C14.1064 8.34424 14.0127 8.26392 13.8603 8.11482C13.5834 7.8531 13.2879 7.62415 12.9833 7.39658C13.0451 7.25718 13.1125 7.16624 13.2238 7.06238C13.6231 6.67418 14.2536 6.00394 14.2818 5.41956C14.2799 5.38678 14.2776 5.35355 14.2758 5.31939C12.9274 4.86979 11.0635 5.69467 9.84443 6.24258C9.80196 6.26151 9.75949 6.28044 9.71564 6.29982C9.1248 6.56339 8.54319 6.8422 7.96896 7.13993C7.89141 7.18009 7.89141 7.18009 7.81248 7.22071C7.59783 7.33288 7.38735 7.44643 7.18332 7.57706C7.02868 7.67354 7.02868 7.67354 6.93636 7.67354C6.93452 7.69939 6.93267 7.72477 6.93083 7.75155C6.88744 8.25884 6.72218 8.5755 6.33629 8.91985C6.02933 9.11603 5.76114 9.20327 5.39832 9.20235C5.32308 9.20281 5.32308 9.20281 5.246 9.20281C5.08998 9.19681 5.08998 9.19681 4.9238 9.16265C4.7664 9.13588 4.7664 9.13588 4.645 9.21896C4.60714 9.25358 4.56929 9.2882 4.53006 9.32375C4.48667 9.36252 4.44282 9.40083 4.39758 9.44053C4.36388 9.47192 4.36388 9.47192 4.3288 9.50331C4.23648 9.5864 4.14047 9.66487 4.04446 9.74426C2.50595 10.9693 2.50595 10.9693 1.67416 12.6588C2.75845 12.8702 3.85428 12.5503 4.87764 12.2064C4.93257 12.188 4.98704 12.17 5.04382 12.151C5.08674 12.134 5.08674 12.134 5.13106 12.1169C5.27554 12.0989 5.35124 12.1566 5.47587 12.2286C5.52434 12.2563 5.57234 12.2835 5.6222 12.3121C5.69836 12.3564 5.69836 12.3564 5.77637 12.4021C5.82807 12.4317 5.87977 12.4612 5.93331 12.4917C6.03625 12.5508 6.13872 12.6099 6.2412 12.6694C6.39168 12.7566 6.54308 12.843 6.69403 12.9288C6.80573 12.9921 6.91698 13.0562 7.02868 13.1204C6.93129 13.2279 6.84774 13.2861 6.71341 13.3401C6.67787 13.3544 6.64233 13.3687 6.60586 13.3835C6.56755 13.3987 6.52877 13.4135 6.48908 13.4292C6.44846 13.4449 6.40784 13.461 6.36583 13.4777C2.64813 14.9169 2.64813 14.9169 1.02884 14.2148C0.529394 13.9633 0.254744 13.6235 0.0437939 13.1116C-0.105764 12.2812 0.171195 11.5408 0.628176 10.8581C0.940678 10.4099 1.29334 10.0028 1.67416 9.61224C1.71524 9.56932 1.71524 9.56932 1.7577 9.52593C2.11221 9.15988 2.47364 8.82014 2.87431 8.50441C2.94632 8.4444 3.01833 8.38393 3.09034 8.323C3.69595 7.81202 3.69595 7.81202 3.84366 7.81202C3.84135 7.78063 3.83905 7.74924 3.8372 7.71739C3.8192 7.26318 3.92306 6.95206 4.21294 6.60032C4.52775 6.27628 4.84994 6.09441 5.30508 6.08103C5.72467 6.08056 5.72467 6.08056 5.90654 6.15442C6.04271 6.20796 6.10318 6.18812 6.24397 6.15027C6.32752 6.11103 6.40922 6.06856 6.49 6.02379C6.56155 5.98455 6.56155 5.98455 6.63448 5.94439C6.68526 5.91624 6.73649 5.88808 6.78911 5.859C6.89805 5.79945 7.00699 5.73991 7.11639 5.68082C7.14408 5.66605 7.17178 5.65082 7.19994 5.63558C8.76521 4.78809 10.4071 4.07954 12.1524 3.7038C12.1898 3.69549 12.2277 3.68718 12.266 3.67887C13.3263 3.45592 14.5947 3.37976 15.4768 4.10354Z" fill="#22C4FF"/>
<path d="M10.8598 6.84266C10.9355 6.88882 11.0102 6.93682 11.0832 6.98668C11.1252 7.0153 11.1672 7.04392 11.2106 7.07346C11.2549 7.10392 11.2987 7.13439 11.3444 7.16578C11.4128 7.21286 11.4128 7.21286 11.4825 7.2604C11.8227 7.49536 12.1518 7.73954 12.4754 7.99665C12.5298 8.03866 12.5843 8.08112 12.6388 8.12313C12.9296 8.34793 13.2107 8.57734 13.4812 8.8266C13.5703 8.90785 13.6612 8.98632 13.7535 9.06387C14.2294 9.47976 14.6809 9.93767 15.0603 10.4431C15.112 10.5119 15.112 10.5119 15.1646 10.5816C15.6474 11.25 16.0638 11.9945 15.9835 12.8434C15.9087 13.3041 15.7056 13.6909 15.3349 13.9817C14.5479 14.5218 13.513 14.4895 12.6051 14.3348C12.2778 14.267 12.2778 14.267 11.9579 14.315C11.8804 14.3741 11.8804 14.3741 11.812 14.4415C11.6126 14.6104 11.2655 14.675 11.0098 14.6621C10.4896 14.5693 10.088 14.3122 9.76624 13.8968C9.65545 13.7292 9.60422 13.5949 9.56729 13.3973C9.54144 13.3909 9.51559 13.384 9.48882 13.377C9.13062 13.2782 8.80058 13.1292 8.465 12.9704C8.43545 12.9565 8.40545 12.9422 8.37452 12.9279C7.33685 12.4391 6.33519 11.8888 5.36675 11.274C5.32059 11.2449 5.27443 11.2158 5.22689 11.1858C5.08933 11.099 4.95224 11.0109 4.81561 10.9223C4.7736 10.895 4.7316 10.8682 4.68821 10.841C4.63051 10.8032 4.63051 10.8032 4.57234 10.7644C4.53819 10.7422 4.50449 10.7205 4.46941 10.6979C4.44587 10.6748 4.42186 10.6518 4.3974 10.6278C4.3974 10.4431 4.3974 10.4431 4.4911 10.324C4.73206 10.1029 4.90608 9.95659 5.24305 9.95659C5.34414 9.96121 5.44476 9.9686 5.54585 9.97598C5.72495 9.98706 5.86066 9.95198 6.03053 9.89197C6.18055 9.84997 6.25625 9.83012 6.40258 9.88643C6.51059 9.95659 6.61307 10.0314 6.716 10.1085C6.88356 10.2266 7.06359 10.3249 7.24176 10.4256C7.28331 10.4491 7.32485 10.4727 7.36732 10.4971C8.06618 10.8918 8.77611 11.2643 9.50959 11.5916C9.5539 11.6114 9.59822 11.6317 9.64345 11.652C9.685 11.67 9.72608 11.688 9.76855 11.7065C9.80455 11.7222 9.84056 11.7379 9.87748 11.7541C10.0894 11.8094 10.2458 11.7245 10.4268 11.6202C10.8561 11.4032 11.2253 11.4356 11.6768 11.581C12.1015 11.7545 12.3715 12.0619 12.5677 12.4741C12.5677 12.5351 12.5677 12.596 12.5677 12.6588C12.912 12.698 13.2545 12.71 13.6007 12.7105C13.64 12.7109 13.6797 12.7109 13.7203 12.7114C13.9262 12.7109 14.1191 12.7003 14.3217 12.6588C14.0088 10.8941 11.7899 9.56008 10.4222 8.60411C10.0774 8.36501 9.72608 8.13652 9.37203 7.9108C9.20494 7.80324 9.03968 7.69246 8.87489 7.58121C8.99722 7.48428 9.11446 7.41135 9.25663 7.34811C9.29449 7.33103 9.33234 7.31441 9.37111 7.29687C9.41127 7.27933 9.45097 7.26179 9.49251 7.24379C9.53313 7.22578 9.57421 7.20732 9.61668 7.18886C9.69977 7.15239 9.78239 7.11592 9.86548 7.07946C9.97073 7.03284 10.075 6.98437 10.1789 6.93544C10.2357 6.90913 10.2925 6.88328 10.3492 6.85697C10.3982 6.83389 10.4471 6.81081 10.4974 6.78727C10.6613 6.74111 10.7084 6.77065 10.8598 6.84266Z" fill="#22C4FF"/>
<path d="M2.34618 3.54801C2.39834 3.54847 2.4505 3.54893 2.50451 3.54939C3.23153 3.56232 3.91284 3.70403 4.60986 3.90298C4.71972 3.93436 4.83004 3.96483 4.94036 3.99483C5.53721 4.16239 6.10774 4.38765 6.68012 4.62491C6.79598 4.67246 6.9123 4.71908 7.02863 4.7657C7.02863 4.79571 7.02863 4.82617 7.02863 4.85802C6.96493 4.88941 6.96493 4.88941 6.9003 4.92218C6.87307 4.93557 6.84537 4.94942 6.81768 4.96327C6.75813 4.99327 6.69858 5.02281 6.63858 5.05235C6.51348 5.11467 6.38931 5.17698 6.26699 5.2453C6.05973 5.36024 5.96372 5.36209 5.73615 5.31962C5.33826 5.291 5.00175 5.28131 4.63109 5.4461C4.24935 5.60304 3.94746 5.5001 3.56665 5.39163C3.09443 5.25776 2.17308 5.09297 1.72026 5.31962C1.74934 5.97878 2.31433 6.57055 2.75054 7.02476C2.86271 7.14293 2.94395 7.2491 3.01273 7.39681C2.99288 7.4125 2.97257 7.42866 2.95226 7.44527C2.56267 7.75778 2.17816 8.07166 1.81258 8.41232C1.17788 8.14967 0.506718 7.03076 0.249147 6.42561C0.00911656 5.82691 -0.115515 5.25961 0.145288 4.64199C0.340543 4.23671 0.668739 3.90575 1.09433 3.74419C1.51254 3.60063 1.9049 3.54201 2.34618 3.54801Z" fill="#22C4FF"/>
<path d="M8.86499 0.226305C9.85143 0.907623 10.3019 2.08608 10.6288 3.19622C10.6288 3.22669 10.6288 3.25715 10.6288 3.28854C10.428 3.36748 10.2267 3.44641 10.0254 3.52488C9.95667 3.55165 9.88835 3.57889 9.82004 3.60566C9.72172 3.64443 9.62294 3.68275 9.52462 3.72106C9.49415 3.73306 9.46322 3.74552 9.43183 3.75799C9.30028 3.80876 9.20196 3.84246 9.05932 3.84246C9.05102 3.81569 9.04225 3.78891 9.03348 3.76122C8.70297 2.65015 8.70297 2.65015 8.04381 1.71911C7.62376 1.89313 7.44881 2.43689 7.28587 2.83064C7.15108 3.16299 7.02876 3.4958 6.93598 3.84246C6.75318 3.81107 6.58747 3.75706 6.41345 3.69244C6.33082 3.66151 6.33082 3.66151 6.24681 3.63012C6.21819 3.61951 6.19004 3.60889 6.16049 3.59781C6.07325 3.56504 5.98601 3.53273 5.89877 3.50042C5.47364 3.34163 5.47364 3.34163 5.36655 3.28854C5.57334 2.22918 6.11295 0.91824 7.0283 0.28816C7.6196 -0.0280346 8.26307 -0.133279 8.86499 0.226305Z" fill="#22C4FF"/>
<path d="M6.89003 14.0897C6.97404 14.2158 7.0082 14.297 7.04928 14.4396C7.24638 15.1071 7.45503 15.7501 7.95171 16.2592C8.37453 16.082 8.53747 15.553 8.69995 15.1579C8.81674 14.8671 8.92244 14.574 9.01338 14.2744C9.12601 14.3838 9.23264 14.4895 9.32634 14.6155C9.4422 14.7517 9.57007 14.85 9.71731 14.9492C9.74363 14.9677 9.76994 14.9857 9.79717 15.0042C9.99196 15.1343 10.1743 15.2239 10.3982 15.2899C10.2934 16.1369 9.71039 17.0929 9.054 17.6154C8.64964 17.8905 8.1982 18.0156 7.71167 17.9482C7.06036 17.8102 6.61861 17.392 6.25995 16.8506C5.9493 16.3594 5.73558 15.8392 5.5514 15.2899C5.52463 15.2207 5.49785 15.1514 5.47062 15.0822C5.41754 14.9335 5.3903 14.7988 5.36676 14.6437C5.40461 14.6303 5.44246 14.6169 5.4817 14.6026C5.62341 14.5523 5.76466 14.5019 5.90637 14.4516C5.9673 14.4299 6.02869 14.4078 6.08962 14.3861C6.17779 14.3547 6.26595 14.3233 6.35412 14.2919C6.43351 14.2638 6.43351 14.2638 6.51429 14.2351C6.64077 14.189 6.7654 14.1405 6.89003 14.0897Z" fill="#22C4FF"/>
</svg>
